<svg xmlns="http://www.w3.org/2000/svg" viewBox="0 0 269.29 240.95"><defs><style>.cls-1{fill:#a5b9c4;}.cls-1,.cls-2{fill-rule:evenodd;}.cls-2{fill:#fff;}.cls-3{fill:#afca0b;}</style></defs><g id="SINA_Hub" data-name="SINA Hub"><path class="cls-1" d="M53.35,88.37A48.44,48.44,0,0,1,52,82.08c-1.38-9.67.62-19.17,6.67-27a41.08,41.08,0,0,1,25.6-15.35,41.93,41.93,0,0,1,19.52,1.16,54.8,54.8,0,0,1,5.79-8.83,41.35,41.35,0,0,1,33.05-15.7c12.92,0,24.13,5.06,31.67,15.67a45.28,45.28,0,0,1,4.61,8.31,59,59,0,0,1,10.41-1.81c12.68-1,24.5,2.71,33.36,12.12C230,58.4,235.16,68.1,234.42,79A30.28,30.28,0,0,1,233,86.31a55,55,0,0,1,5.36,5.84,43,43,0,0,1,9.75,26.69,34.57,34.57,0,0,1-11.81,26.62c-5.48,4.84-13.42,8.7-20.85,8.77l-2.53,0,.05,26.24h18.14L193.73,224.9l-37.31-44.41h18.12V147.64l-.11-38h13.76L162.83,79.45l-25.35,30.18h13.65v44.69H69.32l-.59-.1A48.36,48.36,0,0,1,53.07,148c-10.31-6.45-16.32-16.25-16.35-28.57,0-10.58,3.31-20.6,11.57-27.55a31.67,31.67,0,0,1,5.06-3.47Z"/><path class="cls-2" d="M206.19,147.62l9.17-.08c9.18-.08,26.11-9.29,26-28.67S224.74,88.2,224.74,88.2,235,73.5,217.81,55.26s-43.19-6.34-43.19-6.34-4.69-25.85-32-25.85-35.3,26.62-35.3,26.62c-12-6.85-31.95-5.25-43.37,9.51s-2.05,32.9-2.05,32.9-18.54,3.82-18.5,27.28,26.51,28.25,26.51,28.25h74.52V116.32H123.12l39.71-47.27,39.71,47.27h-21.4l.09,31.3v39.56H170.78l22.95,27.32,23-27.32H206.26Z"/><path class="cls-3" d="M33.26,172.26a4.69,4.69,0,0,1,9.37,0v18.62H56.85V172.26a4.65,4.65,0,0,1,9.29,0v45.6a4.65,4.65,0,0,1-9.29,0v-18.7H42.63v18.7a4.69,4.69,0,0,1-9.37,0Z"/><path class="cls-3" d="M73.3,201.45V172.26a4.69,4.69,0,0,1,9.37,0V202c0,7.75,1.08,12.08,7.51,12.08,6.59,0,7.67-4.33,7.67-12.08V172.26a4.68,4.68,0,0,1,9.36,0v29.19c0,12.69-5.28,21-17,21S73.3,214.14,73.3,201.45Z"/><path class="cls-3" d="M114.3,172.87a4.58,4.58,0,0,1,4.68-4.41h12.13c8.89,0,15.72,6.61,15.72,14.74a11.73,11.73,0,0,1-7.94,11.4,12.5,12.5,0,0,1,8.73,12.17c0,8.2-6.91,14.89-15.87,14.89H119a4.64,4.64,0,0,1-4.68-4.48Zm16,40.43c4.52,0,7.7-3.11,7.7-7.14a7.31,7.31,0,0,0-7.47-7.15h0a4.15,4.15,0,1,1,0-8.28h-.65a7.13,7.13,0,0,0,7.3-7c0-3.88-3.09-7-7.54-7h-6V213.3Z"/></g></svg>