<svg xmlns="http://www.w3.org/2000/svg" viewBox="0 0 269.29 240.95"><defs><style>.cls-1,.cls-3,.cls-5{fill:#1a4b7e;}.cls-1{stroke:#fff;stroke-miterlimit:10;}.cls-1,.cls-2,.cls-3,.cls-4{fill-rule:evenodd;}.cls-2{fill:#a5b9c4;}.cls-4{fill:#fff;}.cls-5{font-size:76px;font-family:BCAlphapipeTSB-Bold, BC Alphapipe;font-weight:700;}</style></defs><g id="PIA"><path class="cls-1" d="M94.46,218.48a4.53,4.53,0,1,0,9.06,0V176.92h7.61a7.72,7.72,0,1,1,0,15.44h-.93a4.19,4.19,0,1,0,0,8.37h1.23c10.14,0,16.9-7.22,16.9-16s-6.76-16.13-16.9-16.13H99A4.52,4.52,0,0,0,94.46,173v45.48Zm40.71,0a4.53,4.53,0,1,0,9.06,0V172.39a4.53,4.53,0,1,0-9.06,0v46.09Zm18.82,0a4.53,4.53,0,0,0,9.06,0V211h10.07a4.23,4.23,0,0,0,0-8.45H163.05V184.37l31,36.95a4.32,4.32,0,0,0,3.45,1.69,4.46,4.46,0,0,0,4.46-4.46,4.54,4.54,0,0,0-1-3l-38.71-46.09a4.73,4.73,0,0,0-8.3,3.15Z"/><polygon class="cls-2" points="89.52 121.1 134.63 121.1 157.19 160.16 112.08 160.16 89.52 121.1"/><polygon class="cls-3" points="89.52 121.1 134.63 121.1 157.19 82.03 112.08 82.03 89.52 121.1"/><polygon class="cls-2" points="134.63 121.1 157.19 160.16 179.74 121.1 157.19 82.03 134.63 121.1"/><path class="cls-4" d="M112.08,160.16,89.52,121.1l22.3-38.62L157.19,82l22.55,39.07-23.07,39.06Zm-17.5-35.6a1.4,1.4,0,0,0,.12.34L97,128.81c.44.73.77,1.37,1.22,2.1l14.42,25c.42.68.76,1.39,1.18,2h38.39l-4.77-8.37c-2.42-4-4.83-8.5-7.25-12.52L133,124.56Zm62.61-36a10.85,10.85,0,0,0-1.26,2.05c-.41.7-.8,1.36-1.22,2.1L149.94,101c-.43.73-.79,1.39-1.21,2.1s-.78,1.32-1.17,2c-2.28,4.08-4.94,8.4-7.2,12.46-.31.56-2.31,3.93-2.31,4.15s7.68,13.39,8.33,14.58c2.14,3.94,5,8.48,7.19,12.46.46.83,3.37,5.62,3.51,6.21h.22a13,13,0,0,1,1.17-2.15l4.81-8.33c.41-.72.73-1.32,1.16-2l7.2-12.46c.43-.73.79-1.39,1.21-2.1s.78-1.32,1.17-2,2.32-3.9,2.32-4.15L159.63,92.65c-.26-.43-2.12-3.84-2.44-4.08ZM133,118.85c1.93-3.65,5.1-8.69,7.23-12.53l3.59-6.24c1.12-2,8.24-14.09,8.37-14.59H113.77c-1.17,2.21-3.5,6.07-4.8,8.33-1.1,1.9-14.28,24.53-14.39,25Z"/><path class="cls-2" d="M93.53,163.64a1.57,1.57,0,0,0-.12-.21l-.47-.78-2.71-4.72c-.31-.51-.6-1.05-.92-1.6s-.6-1-.93-1.58-.58-1.05-.91-1.6L82,143.67c-.32-.55-.58-1.06-.91-1.6L74.67,131c-.6-1-3.08-5.19-3.63-6.42h16.8c1.36,2.59,3.66,6.29,5.22,9.07l2.59,4.48c.48.78.84,1.48,1.31,2.24l8.88,15.43,2.34,4.05c.19.32.39.63.56,1h0l1.64,2.84h48.55l1.61-2.8,0-.05c.23-.34.54-.84.89-1.44l2.13-3.73c.88-1.56,1.71-3.05,2.22-3.88l.52-.92,0,0h0l4-7c.24-.43.45-.72.69-1.15,2-3.6,4.46-7.63,6.51-11.31,1.24-2.21,2.76-4.61,3.92-6.82h16.8c-.14.61-4.9,8.66-5.38,9.48-.6,1.06-1.2,2.12-1.84,3.19-2.45,4.07-4.87,8.65-7.31,12.68-2.16,3.56-4.26,7.54-6.4,11.08-.33.55-.61,1-.93,1.59-.6,1.08-1.22,2.06-1.79,3.12-.29.53-.61,1.05-.92,1.59s-1.95,3.32-3.16,5.43l4,4.72,7.4-12.81c.86-1.55,1.73-2.93,2.58-4.49l7.66-13.26c2.26-4.14,5.36-9.28,7.74-13.4,1.48-2.58,3.82-6.43,5.13-8.92h16.8c-.15.62-4.78,8.44-5.05,8.89-3.39,5.66-6.85,12.11-10.24,17.76-2.59,4.3-5.11,9-7.7,13.32-3.4,5.66-6.85,12.11-10.24,17.76-.9,1.5-1.7,3-2.6,4.48l-1.48,2.57,3.92,4.66c2.32-4,4.83-8.32,5.3-9.09,1.8-3,3.44-6.08,5.23-9l24.34-42.15c1.66-3.07,3.63-6.06,5.26-9.15h16.57c3.94,0,3.9-5.7.12-5.72H228.49c-1.63-3.08-3.52-6-5.22-9.06L204,76.4c-1.78-3-3.42-6.07-5.23-9.06-.62-1-1.13-2-1.76-3L184.75,43.07c-1-1.66-.7-1.07.36-3l8.79-15.2c1-1.8,1.57-2.06,1.57-4a2.79,2.79,0,0,0-2.65-2.4h-.41a3.14,3.14,0,0,0-2.49,1.76c-.55.94-1,1.77-1.54,2.69l-4.65,8c-.55,1-4.43,7.36-4.6,8.07h-89a15.28,15.28,0,0,0-1.49-2.73c-2.57-4.47-5.09-9-7.74-13.4-.54-.9-1-1.75-1.55-2.68-1.59-3-5.56-1.84-5.56.87,0,1.41.83,2.51,1.49,3.65L85,41.42c.21.38.27.4.12.73-.53,1.16-1.58,2.67-2.23,3.84L70.59,67.21c-.3.5-.59,1-.88,1.52L61.85,82.35c-3,5.05-5.77,10.2-8.79,15.21-.62,1-1.17,2-1.75,3l-7,12.17c-1.09,1.82-2.35,4.33-3.52,6.08H24.07a2.77,2.77,0,0,0-2,.77A2.9,2.9,0,0,0,24,124.57c5.59.12,11.21,0,16.8,0,.42.81.92,1.6,1.38,2.4l9.7,16.8c.44.81.92,1.59,1.38,2.39l10.1,17.49H70c-2.26-4-5-8.35-7.12-12.3l-15.1-26.15c-.12-.22-.08-.11-.17-.29s-.08-.25-.12-.34H64.3c2.09,3.95,5.45,9.19,7.65,13.26,1.91,3.52,4.51,7.62,6.44,11.16,1.55,2.84,3.59,6.06,5.14,8.91,1,1.84,2.15,3.79,3.31,5.75h6.69Zm18.55-3.48L89.52,121.1l22.3-38.62L157.19,82l22.55,39.07-23.07,39.06Zm56.77-92,11.08,19c.3.51.61,1,.93,1.58s.59,1.06.92,1.61.61,1,.93,1.58.59,1,.91,1.6c.6,1.08,1.2,2.07,1.8,3.11l9.15,15.87c.51.83,3.52,5.91,3.64,6.42h-16.8l-3.63-6.3c-.33-.55-.58-1.06-.91-1.61s-.63-1.06-.93-1.58c-3.48-6-7.49-13.22-11-19-1.29-2.16-2.89-5.18-4.14-7.17-.24-.37-.37-.35-.2-.77l5.48-9.5c.38-.62,2.64-4.44,2.73-4.82Zm-81,50.73H71c.09-.39,2.19-3.93,2.67-4.75l2.77-4.77c2.8-5.13,6.24-10.65,9.15-15.88l3.65-6.29c2.31-4.24,5.83-10.11,8.27-14.35a40.28,40.28,0,0,1,2.85-4.69l8.34,14.51c-1.09,2.07-2.75,4.64-3.88,6.74-.42.77-.87,1.54-1.34,2.32-3.89,6.49-7.86,13.78-11.75,20.35-.47.79-.87,1.5-1.3,2.25l-.62,1.09-2,3.47Zm17.48-53.7h58.61c-1.75,3.3-4.33,7.44-6.25,10.89-.38.68-2,3.24-2.09,3.73H113.77c-.37-.55-.72-1.17-1.06-1.79L106.39,67c-.38-.64-.74-1.27-1.07-1.89Zm-41,53.7H47.5c.09-.4,2.25-4,2.51-4.45.4-.74.87-1.45,1.26-2.18,2.64-4.88,6.3-10.64,9-15.57l3.81-6.59c1.15-2.13,2.73-4.6,3.88-6.74.4-.73.86-1.44,1.26-2.17,2.29-4.24,5.37-9.08,7.7-13.33L83.3,56.73c.42-.76.81-1.43,1.26-2.17L87.79,49a5.78,5.78,0,0,0,.62-1.21c.42.11.83,1.07,1.17,1.68s.66,1.16,1,1.81c.74,1.27,1.4,2.45,2.12,3.7C94,57.15,95.86,60.18,97,62.29L83.76,85.18c-.35.63-.72,1.21-1.06,1.8-2.81,4.87-6.32,11.17-9.15,15.87-2.07,3.42-4.12,7.27-6.14,10.65-.37.62-.73,1.2-1.06,1.81-.17.31-.3.53-.5.86l-1.55,2.68ZM180.84,47.78A18.46,18.46,0,0,0,182.06,50c.44.78.86,1.5,1.3,2.24l5.1,8.84c.44.78.86,1.5,1.3,2.24l3.19,5.5L193.6,70c1.63,2.91,3.54,6,5.11,8.84l6.4,11.08c.21.4.43.72.64,1.08l5.79,10.08c.23.4.42.67.65,1.07l.61,1.1,7.7,13.33a17.45,17.45,0,0,1,1.25,2.29H205c-1.18-2.22-3.08-5.28-4.42-7.69L196,103.35c-.44-.8-.85-1.45-1.29-2.25-2.73-5-6.28-10.6-9-15.57-.43-.79-.84-1.49-1.3-2.25l-11.54-20c-.79-1.42-.65-.84.11-2.22l3.85-6.67c.44-.76.85-1.45,1.3-2.24l2.24-3.93c.21-.4,0-.33.46-.45Zm-87.29-3H175.7l-5.22,9.06c-.35.63-.72,1.21-1.06,1.8-.7,1.23-1.4,2.4-2.06,3.65H101.89L95.64,48.43c-.36-.66-.66-1.17-1-1.83-.18-.32-.33-.55-.51-.85S93.76,45.13,93.55,44.81Z"/><text class="cls-5" transform="translate(89.89 222.07)">PI<tspan x="58.9" y="0">A</tspan></text></g></svg>