<svg xmlns="http://www.w3.org/2000/svg" viewBox="0 0 269.29 240.95"><defs><style>.cls-1{fill:#a5b9c4;}.cls-1,.cls-2,.cls-3,.cls-4{fill-rule:evenodd;}.cls-2{fill:#afca10;}.cls-3{fill:#fff;}.cls-4{fill:none;}</style></defs><g id="SINA"><polygon class="cls-1" points="90.52 119.03 135.63 119.03 158.19 79.96 113.08 79.96 90.52 119.03"/><polygon class="cls-2" points="89.52 119.03 134.63 119.03 157.19 158.1 112.08 158.1 89.52 119.03"/><polygon class="cls-1" points="134.63 119.03 157.19 158.09 179.75 119.03 157.19 79.96 134.63 119.03"/><path class="cls-3" d="M112.08,158.1,89.52,119l22.3-38.62L157.19,80,179.74,119,156.67,158.1Zm-17.5-35.6c0,.08,0,.16.12.33L97,126.75c.44.72.77,1.36,1.22,2.09l14.42,25c.42.69.76,1.39,1.18,2h38.39l-4.77-8.36c-2.42-4-4.83-8.5-7.25-12.53L133,122.5Zm62.61-36a11.39,11.39,0,0,0-1.26,2c-.4.7-.8,1.36-1.22,2.1l-4.77,8.26c-.43.73-.79,1.4-1.21,2.1s-.78,1.33-1.17,2c-2.28,4.07-4.94,8.39-7.2,12.45-.31.56-2.31,3.93-2.31,4.15s7.68,13.39,8.33,14.59c2.14,3.93,5,8.47,7.19,12.45.46.83,3.37,5.63,3.51,6.21h.23a12.63,12.63,0,0,1,1.16-2.15l4.81-8.33c.41-.72.74-1.32,1.16-2l7.2-12.45c.43-.74.79-1.4,1.21-2.1s.78-1.33,1.17-2,2.32-3.9,2.32-4.15L159.63,90.58c-.26-.43-2.12-3.84-2.44-4.08ZM133,116.78c1.93-3.65,5.1-8.69,7.23-12.53L143.79,98c1.12-2,8.24-14.09,8.37-14.59H113.77c-1.17,2.21-3.5,6.07-4.8,8.33-1.1,1.9-14.28,24.53-14.39,25Z"/><path class="cls-1" d="M93.54,161.57l-.13-.2c-.17-.29-.3-.49-.47-.79l-2.71-4.71c-.31-.52-.6-1.06-.92-1.6s-.6-1.05-.93-1.59-.58-1.05-.91-1.6L82,141.6c-.33-.55-.59-1.06-.92-1.6l-6.4-11.08c-.59-1-3.08-5.2-3.63-6.42h16.8c1.37,2.58,3.66,6.28,5.22,9.06l2.6,4.48c.47.78.83,1.48,1.3,2.25l8.88,15.42,2.34,4.06c.19.31.39.62.57.95h0l1.64,2.84h48.56l1.6-2.8,0-.05c.23-.34.54-.84.89-1.44l2.13-3.73c.88-1.56,1.72-3,2.22-3.88l.52-.91,0,0h0l4-7c.23-.43.44-.71.68-1.15,2-3.6,4.46-7.63,6.52-11.3,1.24-2.22,2.75-4.62,3.92-6.82h16.79c-.14.6-4.9,8.65-5.37,9.47-.61,1.06-1.21,2.12-1.85,3.19-2.45,4.07-4.87,8.66-7.31,12.68-2.16,3.56-4.26,7.54-6.4,11.08-.33.55-.61,1-.93,1.59-.6,1.08-1.22,2.06-1.79,3.12-.29.54-.61,1.05-.92,1.59s-1.95,3.32-3.16,5.44l4,4.71,7.4-12.8c.86-1.55,1.73-2.94,2.58-4.5l7.66-13.25c2.27-4.15,5.36-9.28,7.74-13.41,1.48-2.58,3.82-6.43,5.13-8.91h16.8c-.14.61-4.78,8.43-5.05,8.89-3.39,5.65-6.85,12.1-10.24,17.75-2.59,4.31-5.11,9-7.7,13.32-3.4,5.66-6.85,12.11-10.24,17.76-.9,1.51-1.7,2.95-2.6,4.48l-1.48,2.57,3.92,4.66c2.33-4,4.84-8.31,5.3-9.08,1.8-3,3.44-6.09,5.23-9.06l24.34-42.15c1.66-3.07,3.63-6.06,5.26-9.14h16.57c3.94,0,3.9-5.7.12-5.72H228.49c-1.63-3.08-3.52-6-5.22-9.06L204,74.33c-1.78-3-3.42-6.07-5.23-9.06-.62-1-1.13-2-1.76-3L184.75,41c-1-1.67-.7-1.08.36-3l8.79-15.2c1-1.8,1.57-2.06,1.57-4a2.79,2.79,0,0,0-2.65-2.4h-.41a3.16,3.16,0,0,0-2.49,1.76c-.55.94-1,1.78-1.54,2.69l-4.64,8c-.56,1-4.44,7.36-4.61,8.07h-89a15.28,15.28,0,0,0-1.49-2.73c-2.57-4.47-5.09-9-7.74-13.4-.54-.89-1-1.75-1.55-2.68-1.59-3-5.56-1.84-5.56.88,0,1.41.84,2.5,1.49,3.65L85,39.35c.21.38.27.4.12.73-.53,1.16-1.57,2.67-2.23,3.84L70.59,65.14c-.3.51-.59,1-.88,1.52L61.85,80.29c-3,5-5.77,10.19-8.79,15.2-.61,1-1.17,2-1.75,3.05l-7,12.17c-1.09,1.81-2.35,4.33-3.52,6.07H24.07a2.77,2.77,0,0,0-2,.77,2.9,2.9,0,0,0,1.86,5c5.59.12,11.21,0,16.8,0,.42.8.92,1.59,1.38,2.39l9.7,16.8c.44.81.92,1.59,1.38,2.39l10.1,17.49H70c-2.25-4-5-8.35-7.12-12.3l-15.1-26.15c-.12-.21-.08-.11-.17-.29s-.08-.25-.12-.33H64.3c2.09,3.94,5.45,9.18,7.65,13.25,1.91,3.52,4.51,7.62,6.44,11.16,1.55,2.84,3.59,6.06,5.14,8.91,1,1.85,2.15,3.79,3.31,5.75h6.7Zm18.54-3.47L89.52,119l22.3-38.62L157.19,80,179.74,119,156.67,158.1Zm56.77-92,11.09,19c.29.51.6,1,.93,1.59s.58,1.05.91,1.6.61,1,.93,1.58.59,1,.91,1.6c.6,1.08,1.2,2.07,1.8,3.12l9.16,15.86c.5.83,3.51,5.92,3.63,6.42H181.42l-3.64-6.3c-.33-.55-.58-1-.91-1.6s-.63-1.06-.93-1.59c-3.48-6-7.49-13.21-11-19-1.29-2.16-2.89-5.18-4.14-7.17-.24-.37-.37-.35-.2-.77l5.48-9.5c.38-.62,2.64-4.44,2.73-4.82Zm-81,50.73H71c.09-.39,2.19-3.93,2.68-4.75l2.76-4.77c2.8-5.13,6.24-10.65,9.15-15.88l3.65-6.29c2.31-4.23,5.83-10.1,8.27-14.35a41.14,41.14,0,0,1,2.85-4.69l8.35,14.51c-1.1,2.07-2.75,4.65-3.89,6.74-.42.78-.87,1.54-1.33,2.32-3.9,6.49-7.87,13.78-11.76,20.36-.47.78-.87,1.49-1.3,2.24-.22.38-.39.68-.62,1.1l-2,3.46Zm17.48-53.7h58.61c-1.74,3.3-4.33,7.45-6.25,10.89-.38.68-2,3.24-2.09,3.74H113.77c-.37-.56-.71-1.18-1.06-1.8L106.39,65c-.38-.64-.74-1.27-1.07-1.89Zm-41,53.7H47.5c.1-.4,2.25-4,2.52-4.45.39-.74.86-1.44,1.25-2.17,2.64-4.89,6.3-10.65,9-15.58L64.07,88c1.15-2.13,2.73-4.6,3.88-6.74.4-.73.86-1.44,1.26-2.17,2.29-4.23,5.37-9.08,7.7-13.33L83.3,54.66c.42-.75.81-1.43,1.26-2.17l3.23-5.57a5.78,5.78,0,0,0,.62-1.21c.42.12.83,1.07,1.18,1.68s.65,1.17,1,1.82c.75,1.26,1.4,2.44,2.12,3.7C94,55.08,95.86,58.12,97,60.22L83.76,83.11c-.35.63-.72,1.21-1.06,1.8-2.81,4.87-6.32,11.18-9.15,15.87-2.07,3.42-4.12,7.28-6.14,10.66-.37.61-.72,1.19-1.06,1.8-.17.32-.3.53-.5.87l-1.55,2.67ZM180.84,45.71a18.61,18.61,0,0,0,1.23,2.21c.43.78.85,1.5,1.29,2.24l5.1,8.84c.44.78.86,1.51,1.3,2.25L193,66.74c.23.41.41.74.66,1.17,1.62,2.91,3.53,6,5.1,8.84l6.4,11.09c.21.39.43.72.64,1.07L211.54,99c.23.4.42.68.65,1.08l.61,1.09,7.7,13.33a17.45,17.45,0,0,1,1.25,2.29H205c-1.17-2.22-3.08-5.28-4.42-7.69L196,101.28c-.44-.8-.85-1.44-1.29-2.25-2.73-5-6.28-10.6-9-15.57-.43-.78-.84-1.49-1.3-2.25l-11.54-20c-.79-1.42-.65-.84.12-2.22l3.84-6.67c.44-.76.86-1.45,1.3-2.24l2.24-3.93c.21-.4,0-.33.46-.45Zm-87.29-3H175.7l-5.22,9.06c-.35.63-.72,1.21-1.06,1.8-.7,1.23-1.4,2.4-2.06,3.65H101.89L95.64,46.36c-.35-.66-.66-1.17-1-1.82-.18-.32-.33-.55-.51-.86S93.76,43.06,93.55,42.74Z"/><path class="cls-2" d="M57.41,220.86c9.57,0,17-6.81,17-15.47,0-11-7.66-14.09-13.33-15.86l-3.37-1.07c-3.21-.92-7.58-2.68-7.58-7.35a7.08,7.08,0,0,1,7.28-7.05c4.67,0,6.74,3.06,7.81,5.44A3.84,3.84,0,0,0,69,182a4.45,4.45,0,0,0,4.45-4.45c0-5.05-6.28-11.87-16-11.87-9.27,0-16.32,6.36-16.32,14.86,0,10,6.89,13.48,12.18,15.17l3.91,1.15c4,1.22,8.19,3,8.19,7.89a7.75,7.75,0,0,1-8,7.66c-5.14,0-7.36-3.45-8.43-6a4.13,4.13,0,0,0-3.91-2.52,4.44,4.44,0,0,0-4.44,4.44c0,5.28,7.12,12.48,16.78,12.48Zm25.35-4.59a4.52,4.52,0,0,0,9,0v-46a4.52,4.52,0,1,0-9,0v46Zm18.77,0a4.52,4.52,0,0,0,9,0v-34l23.82,28.42v5.59a4.49,4.49,0,1,0,9,0v-46a4.49,4.49,0,1,0-9,0v26.42L109.8,167.4a4.58,4.58,0,0,0-3.6-1.61,4.66,4.66,0,0,0-4.67,4.75v45.73Zm52.47,0a4.52,4.52,0,1,0,9,0v-7.43h10a4.16,4.16,0,0,0,4.21-4.22,4.2,4.2,0,0,0-4.21-4.21H163V182.26l31,36.84a4.31,4.31,0,0,0,3.45,1.69,4.44,4.44,0,0,0,4.44-4.45,4.49,4.49,0,0,0-1-3l-38.6-46a4.58,4.58,0,0,0-3.6-1.61,4.66,4.66,0,0,0-4.68,4.75Z"/><path class="cls-4" d="M143.36,170.31v46a4.49,4.49,0,1,1-9,0v-5.59l-23.82-28.42v34a4.52,4.52,0,0,1-9,0V170.54a4.66,4.66,0,0,1,4.67-4.75,4.58,4.58,0,0,1,3.6,1.61l24.59,29.33V170.31a4.49,4.49,0,1,1,9,0Zm-51.56,0v46a4.52,4.52,0,0,1-9,0v-46a4.52,4.52,0,1,1,9,0ZM74.41,205.39c0,8.66-7.43,15.47-17,15.47s-16.78-7.2-16.78-12.48a4.45,4.45,0,0,1,4.44-4.45A4.13,4.13,0,0,1,49,206.46c1.07,2.53,3.29,6,8.43,6a7.75,7.75,0,0,0,8-7.66c0-4.9-4.21-6.67-8.19-7.89l-3.91-1.15c-5.29-1.69-12.18-5.13-12.18-15.17,0-8.5,7-14.86,16.32-14.86,9.73,0,16,6.82,16,11.87A4.45,4.45,0,0,1,69,182a3.84,3.84,0,0,1-3.75-2.53c-1.07-2.38-3.14-5.44-7.81-5.44a7.08,7.08,0,0,0-7.28,7.05c0,4.67,4.37,6.43,7.58,7.35l3.37,1.07c5.67,1.77,13.33,4.83,13.33,15.86Zm87.87-38,38.6,46a4.49,4.49,0,0,1,1,3,4.44,4.44,0,0,1-4.44,4.45A4.31,4.31,0,0,1,194,219.1l-31-36.84v18.15h10a4.2,4.2,0,0,1,4.21,4.21,4.16,4.16,0,0,1-4.21,4.22H163v7.43a4.52,4.52,0,1,1-9,0V170.54a4.66,4.66,0,0,1,4.68-4.75A4.58,4.58,0,0,1,162.28,167.4Z"/></g></svg>